<svg xmlns="http://www.w3.org/2000/svg" xmlns:xlink="http://www.w3.org/1999/xlink" version="1.1" width="300px" height="445px" viewBox="-0.5 -0.5 300 445"><defs/><g><ellipse cx="149" cy="404" rx="119.99999999999999" ry="40" fill="#e2e1e1" stroke="none" pointer-events="all"/><ellipse cx="149.01" cy="404" rx="53.75" ry="24" fill="#b9bbc1" stroke="none" pointer-events="all"/><path d="M 149 4 L 268.28 176.55 C 285.03 200.78 294 229.54 294 259 C 294 297.46 278.72 334.34 251.53 361.53 C 224.34 388.72 187.46 404 149 404 C 110.54 404 73.66 388.72 46.47 361.53 C 19.28 334.34 4 297.46 4 259 C 4 229.54 12.97 200.78 29.72 176.55 Z" fill="#f34235" stroke="#e0300a" stroke-width="10" stroke-miterlimit="10" transform="rotate(-180,149,204)" pointer-events="all"/><path d="M 149.01 118.26 L 199.58 197.47 C 205.73 207.11 209 218.31 209 229.75 C 209 245.66 202.68 260.92 191.43 272.17 C 180.18 283.42 164.92 289.74 149.01 289.74 C 133.1 289.74 117.84 283.42 106.59 272.17 C 95.34 260.92 89.02 245.66 89.02 229.75 C 89.02 218.31 92.29 207.11 98.44 197.47 Z" fill="rgb(255, 255, 255)" stroke="none" transform="rotate(-180,149.01,204)" pointer-events="all"/></g></svg>